<svg width="534" height="371" viewBox="0 0 534 371" fill="none" xmlns="http://www.w3.org/2000/svg">
<mask id="mask0" mask-type="alpha" maskUnits="userSpaceOnUse" x="0" y="0" width="534" height="371">
<rect y="0.369995" width="534" height="370" rx="18.5473" fill="white"/>
</mask>
<g mask="url(#mask0)">
<path d="M260 175.926C214.437 208.193 211.952 297.26 225.118 331.33L265.449 407.323H653.949L632.001 135.042C619.834 128.569 541.5 78.8269 473.5 87.5148C416.366 94.8143 410.507 115.635 377 135.042C347 152.418 330 126.355 260 175.926Z" fill="#EDF2FB"/>
<path d="M152.119 271.026C106.555 303.293 118.951 384.139 132.118 418.209L172.448 494.202H560.948L573.948 174.285C561.781 167.811 530.617 120.778 462.617 129.466C405.484 136.765 352.448 218.235 318.948 237.655C285.448 257.075 222.119 221.455 152.119 271.026Z" fill="#0C57B8"/>
<g filter="url(#filter0_d)">
<path d="M434.883 231.349C434.406 232.349 434.034 233.397 433.772 234.476C433.516 235.552 433.339 236.646 433.244 237.749C433.186 238.438 433.336 239.448 432.952 240.073C433.474 240.515 434.132 240.894 434.71 241.307C433.818 241.273 433.447 241.118 433.315 242.091C433.083 243.956 433.142 245.842 432.949 247.711C432.916 248.597 432.791 249.477 432.575 250.336C432.358 250.985 431.768 251.748 431.869 252.477C431.992 253.365 434.545 253.803 435.179 254.189C434.377 254.442 432.929 254.714 432.141 254.315C432.491 254.822 432.943 255.247 433.466 255.561C432.796 255.463 432.123 255.237 431.505 255.152C431.335 255.727 430.958 256.274 430.74 256.857C430.46 257.611 430.14 258.298 429.845 259.043C429.452 260.078 428.136 262.22 428.542 263.311C428.932 264.392 431.287 266.176 432.356 266.216C431.549 266.322 430.73 266.251 429.952 266.008C429.173 265.766 428.455 265.357 427.842 264.81C426.836 266.848 426.259 269.081 426.151 271.362C426.028 273.647 427.22 275.535 428.991 276.155C429.99 276.486 431.075 276.418 432.028 275.965C432.232 275.598 432.398 275.228 432.589 274.853C433.504 273.009 434.295 271.104 434.955 269.15C436.222 265.249 437.065 261.217 437.47 257.128C438.345 248.931 436.467 241.02 435.852 232.903C435.851 232.897 435.852 232.891 435.853 232.885C435.855 232.879 435.857 232.873 435.861 232.868C435.865 232.863 435.869 232.859 435.874 232.856C435.88 232.854 435.886 232.852 435.892 232.851C435.898 232.851 435.904 232.852 435.909 232.854C435.915 232.856 435.92 232.859 435.924 232.863C435.929 232.867 435.932 232.872 435.935 232.878C435.937 232.884 435.938 232.89 435.938 232.896C436.385 237.355 437.311 241.728 437.905 246.178C438.431 250.098 438.493 254.069 438.09 258.004C437.631 262.114 436.737 266.16 435.425 270.073C434.687 272.625 433.75 275.111 432.623 277.509C433.027 278.304 433.623 278.979 434.354 279.471C435.086 279.963 435.928 280.255 436.801 280.319C439.023 280.502 440.706 279.051 441.757 277.174C442.24 276.321 442.643 275.335 443.049 274.476C443.401 273.705 443.405 272.608 443.984 271.962C443.384 271.453 442.632 271.157 441.996 270.706C442.757 270.533 443.542 270.497 444.315 270.598C444.382 269.894 444.95 268.474 444.781 267.825C444.611 267.177 443.237 266.707 442.666 266.445C443.311 266.225 443.99 266.128 444.669 266.155C445.644 264.602 445.748 262.051 445.887 260.275C445.985 258.926 445.857 257.516 446.01 256.18C445.06 256.109 444.091 255.902 443.098 255.864C441.866 255.909 440.633 255.767 439.441 255.444C440.285 255.259 441.148 255.109 441.999 255.012C443.311 254.859 444.49 254.226 445.778 254.079C445.751 253.495 445.758 252.91 445.798 252.327C445.778 251.733 445.422 246.73 444.928 246.807C443.84 246.959 442.65 246.817 441.52 247.004C442.129 246.606 442.887 246.035 443.495 245.677C442.878 245.758 441.929 245.584 441.41 245.603C441.924 245.228 443.331 244.16 443.915 244.432C443.324 243.574 442.897 242.61 442.658 241.59C442.35 240.673 441.933 239.799 441.416 238.986C441.062 238.406 440.581 237.868 440.305 237.295C439.816 237.563 438.808 237.122 438.26 237.123C438.646 236.636 439.109 236.217 439.629 235.885C438.399 233.56 436.692 231.714 436.536 228.896C436.549 229.265 435.104 230.89 434.883 231.349Z" fill="#81A4FF"/>
<path d="M435.854 232.907C436.471 241.024 438.347 248.936 437.472 257.132C437.067 261.222 436.224 265.253 434.957 269.154C434.297 271.108 433.506 273.013 432.591 274.857C432.401 275.236 432.234 275.603 432.029 275.969C432.137 275.936 432.24 275.891 432.338 275.834C432.284 276.41 432.383 276.991 432.626 277.513C433.753 275.116 434.69 272.629 435.428 270.077C436.74 266.165 437.634 262.118 438.093 258.008C438.496 254.073 438.434 250.102 437.908 246.182C437.314 241.732 436.388 237.36 435.941 232.9C435.94 232.888 435.935 232.877 435.926 232.87C435.917 232.862 435.906 232.858 435.894 232.859C435.883 232.86 435.872 232.866 435.864 232.875C435.857 232.884 435.853 232.895 435.854 232.907Z" fill="#2A519E"/>
<path d="M419.9 295.178C419.432 295.708 421.061 296.916 421.548 296.42C422.505 295.457 431.964 278.751 432.622 277.514C432.38 276.991 432.281 276.411 432.335 275.835C432.237 275.891 432.134 275.936 432.026 275.97C431.315 277.462 420.968 293.934 419.9 295.178Z" fill="#56548C"/>
<path d="M465.664 286.56C465.059 287.137 464.395 287.648 463.685 288.082C462.976 288.512 462.237 288.887 461.473 289.204C460.995 289.401 460.243 289.514 459.884 289.939C459.452 289.648 459.037 289.244 458.614 288.904C458.837 289.561 459.03 289.803 458.367 290.118C457.092 290.706 455.736 291.081 454.449 291.642C453.826 291.863 453.227 292.153 452.664 292.504C452.25 292.81 451.838 293.419 451.298 293.507C450.637 293.613 449.758 291.809 449.341 291.423C449.341 292.078 449.468 293.217 449.93 293.714C449.491 293.566 449.089 293.324 448.748 293.005C448.967 293.481 449.278 293.933 449.476 294.374C449.105 294.626 448.797 295.032 448.43 295.324C447.955 295.703 447.538 296.092 447.072 296.478C446.423 297.001 445.19 298.458 444.323 298.399C443.466 298.349 441.672 296.992 441.404 296.206C441.508 296.83 441.741 297.424 442.087 297.95C442.433 298.476 442.883 298.92 443.41 299.254C442.182 300.457 440.721 301.382 439.122 301.97C438.429 302.273 437.657 302.335 436.926 302.146C436.195 301.956 435.546 301.526 435.078 300.921C434.619 300.251 434.425 299.428 434.534 298.618C434.75 298.384 434.976 298.176 435.201 297.952C436.31 296.861 437.49 295.848 438.734 294.921C441.229 293.111 443.912 291.586 446.733 290.375C452.373 287.898 458.423 287.533 464.338 286.186C464.343 286.186 464.348 286.185 464.353 286.183C464.357 286.181 464.361 286.178 464.365 286.174C464.368 286.17 464.37 286.166 464.371 286.161C464.373 286.156 464.373 286.15 464.372 286.145C464.37 286.14 464.368 286.136 464.365 286.132C464.362 286.128 464.358 286.124 464.353 286.122C464.349 286.12 464.344 286.119 464.339 286.119C464.334 286.119 464.329 286.12 464.325 286.123C461.053 286.783 457.731 287.066 454.431 287.614C451.524 288.096 448.685 288.934 445.974 290.111C443.15 291.368 440.469 292.935 437.975 294.783C436.323 295.901 434.762 297.153 433.305 298.527C432.65 298.403 432.037 298.109 431.524 297.673C431.01 297.238 430.615 296.675 430.374 296.039C429.75 294.425 430.408 292.849 431.51 291.648C432.01 291.098 432.621 290.578 433.144 290.084C433.614 289.651 434.394 289.403 434.725 288.828C435.218 289.161 435.599 289.655 436.062 290.028C436.015 289.423 435.866 288.83 435.622 288.277C436.109 288.07 436.993 287.33 437.493 287.313C437.992 287.295 438.633 288.215 438.946 288.58C438.959 288.051 438.877 287.523 438.706 287.023C439.595 285.95 441.386 285.307 442.621 284.807C443.56 284.434 444.592 284.215 445.51 283.806C445.772 284.501 446.135 285.173 446.381 285.904C446.623 286.832 446.998 287.719 447.492 288.536C447.436 287.866 447.35 287.189 447.23 286.534C447.045 285.524 447.234 284.503 447.053 283.511C447.474 283.401 447.889 283.266 448.295 283.106C448.723 282.989 452.364 282.14 452.419 282.525C452.552 283.369 452.919 284.225 453.036 285.107C453.183 284.566 453.422 283.874 453.541 283.343C453.622 283.821 453.957 284.489 454.059 284.88C454.211 284.413 454.658 283.128 454.335 282.753C455.077 283.002 455.858 283.106 456.638 283.057C457.359 283.082 458.075 283.198 458.768 283.402C459.262 283.536 459.75 283.775 460.219 283.855C460.138 284.278 460.676 284.928 460.797 285.339C461.058 284.943 461.253 284.505 461.374 284.044C463.304 284.442 464.997 285.303 467.038 284.792C466.777 284.855 465.942 286.293 465.664 286.56Z" fill="#81A4FF"/>
<path d="M464.338 286.184C458.423 287.533 452.373 287.896 446.732 290.372C443.911 291.584 441.229 293.108 438.734 294.919C437.49 295.846 436.31 296.858 435.201 297.95C434.976 298.175 434.75 298.382 434.534 298.615C434.534 298.528 434.544 298.442 434.562 298.357C434.164 298.526 433.729 298.582 433.303 298.517C434.759 297.144 436.321 295.892 437.973 294.774C440.466 292.925 443.148 291.358 445.971 290.101C448.682 288.925 451.521 288.087 454.428 287.605C457.728 287.057 461.048 286.773 464.322 286.114C464.326 286.112 464.331 286.112 464.336 286.113C464.34 286.114 464.345 286.115 464.348 286.118C464.352 286.12 464.356 286.124 464.358 286.128C464.361 286.131 464.363 286.136 464.364 286.14C464.365 286.145 464.365 286.15 464.365 286.154C464.364 286.159 464.362 286.164 464.36 286.168C464.357 286.172 464.354 286.175 464.35 286.178C464.347 286.181 464.342 286.183 464.338 286.184V286.184Z" fill="#56548C"/>
<path d="M423.716 311.885C423.443 312.352 422.102 311.32 422.346 310.847C422.819 309.92 432.569 299.291 433.303 298.522C433.729 298.586 434.165 298.531 434.563 298.362C434.544 298.447 434.535 298.533 434.535 298.62C433.631 299.485 424.363 310.813 423.716 311.885Z" fill="#2A519E"/>
<path d="M449.87 257.372C449.322 257.875 448.828 258.437 448.396 259.047C447.968 259.655 447.585 260.295 447.25 260.962C447.042 261.38 446.885 262.053 446.489 262.345C446.708 262.757 447.026 263.166 447.286 263.578C446.734 263.325 446.54 263.13 446.215 263.704C445.606 264.814 445.174 266.013 444.588 267.135C444.347 267.683 444.049 268.202 443.7 268.685C443.403 269.036 442.843 269.361 442.725 269.844C442.581 270.435 444.075 271.373 444.377 271.781C443.674 271.757 442.996 271.508 442.439 271.068C442.533 271.477 442.711 271.861 442.961 272.194C442.565 271.958 442.198 271.642 441.832 271.427C441.582 271.743 441.209 271.989 440.927 272.3C440.564 272.701 440.191 273.048 439.821 273.437C439.318 273.985 437.959 274.987 437.941 275.777C438.125 276.901 438.723 277.91 439.612 278.595C439.08 278.451 438.583 278.194 438.155 277.839C437.727 277.484 437.377 277.041 437.129 276.538C435.99 277.555 435.073 278.806 434.438 280.21C434.121 280.814 434.006 281.508 434.113 282.186C434.22 282.863 434.541 283.486 435.028 283.957C435.573 284.425 436.27 284.666 436.98 284.631C437.2 284.454 437.397 284.265 437.61 284.079C438.642 283.16 439.611 282.169 440.511 281.115C442.276 278.996 443.808 276.685 445.079 274.224C447.668 269.307 448.457 263.853 450.09 258.598C450.091 258.594 450.093 258.59 450.095 258.587C450.098 258.584 450.101 258.582 450.104 258.58C450.108 258.578 450.111 258.577 450.115 258.577C450.119 258.576 450.123 258.577 450.126 258.578C450.13 258.579 450.133 258.581 450.136 258.584C450.139 258.586 450.142 258.589 450.143 258.593C450.145 258.596 450.146 258.6 450.147 258.604C450.147 258.608 450.147 258.612 450.145 258.615C449.316 261.531 448.81 264.516 448.076 267.464C447.431 270.061 446.482 272.569 445.25 274.934C443.94 277.395 442.372 279.703 440.575 281.817C439.478 283.227 438.271 284.544 436.967 285.755C437.023 286.359 437.229 286.938 437.566 287.437C437.903 287.936 438.359 288.339 438.891 288.607C440.24 289.302 441.657 288.827 442.784 287.922C443.299 287.513 443.797 286.999 444.266 286.565C444.678 286.173 444.954 285.486 445.477 285.231C445.23 284.755 444.83 284.374 444.543 283.925C445.063 284.015 445.564 284.196 446.024 284.461C446.242 284.036 446.95 283.292 447.006 282.842C447.061 282.391 446.314 281.738 446.022 281.425C446.481 281.455 446.932 281.57 447.352 281.764C448.35 281.043 449.049 279.471 449.579 278.39C449.975 277.569 450.246 276.651 450.673 275.852C450.094 275.56 449.537 275.177 448.924 274.896C448.139 274.604 447.4 274.194 446.732 273.681C447.309 273.783 447.881 273.915 448.445 274.076C449.31 274.321 450.204 274.231 451.049 274.473C451.177 274.1 451.327 273.735 451.498 273.38C451.633 273.001 452.654 269.768 452.325 269.688C451.604 269.499 450.892 269.101 450.137 268.925C450.618 268.834 451.236 268.672 451.704 268.605C451.297 268.495 450.745 268.138 450.414 268.015C450.83 267.914 451.979 267.61 452.278 267.932C452.12 267.24 452.092 266.524 452.196 265.821C452.231 265.165 452.186 264.508 452.064 263.863C451.986 263.408 451.817 262.945 451.786 262.513C451.416 262.553 450.89 262.014 450.545 261.872C450.909 261.667 451.304 261.525 451.713 261.452C451.52 259.672 450.907 258.07 451.51 256.259C451.434 256.497 450.123 257.141 449.87 257.372Z" fill="#5B8BF4"/>
<path d="M450.091 258.603C448.458 263.858 447.669 269.312 445.081 274.229C443.809 276.691 442.277 279.002 440.512 281.12C439.612 282.175 438.643 283.165 437.611 284.084C437.398 284.273 437.201 284.459 436.981 284.636C437.057 284.642 437.133 284.641 437.207 284.631C437.03 284.978 436.948 285.368 436.97 285.759C438.274 284.548 439.481 283.231 440.579 281.821C442.376 279.707 443.943 277.399 445.253 274.938C446.485 272.573 447.434 270.065 448.079 267.468C448.813 264.52 449.32 261.532 450.149 258.619C450.15 258.615 450.15 258.611 450.15 258.607C450.149 258.603 450.148 258.6 450.146 258.596C450.144 258.593 450.141 258.59 450.138 258.587C450.135 258.585 450.132 258.583 450.128 258.582C450.124 258.581 450.12 258.58 450.116 258.581C450.112 258.581 450.109 258.583 450.105 258.584C450.102 258.586 450.099 258.589 450.097 258.592C450.094 258.595 450.092 258.599 450.091 258.603V258.603Z" fill="#3458B2"/>
<path d="M424.639 293.398C424.215 293.61 425.003 294.906 425.432 294.725C426.272 294.37 436.245 286.368 436.966 285.763C436.944 285.372 437.026 284.982 437.203 284.634C437.129 284.644 437.053 284.646 436.978 284.639C436.158 285.387 425.62 292.896 424.639 293.398Z" fill="#3458B2"/>
<path d="M435.816 273.702C435.816 273.702 443.315 275.505 448.296 272.915C448.296 272.915 441.047 271.218 435.816 273.702Z" fill="#FFD776"/>
<path d="M435.816 273.702C435.816 273.702 437.864 267.532 435.24 262.949C435.24 262.949 433.564 268.505 435.816 273.702Z" fill="#FFD776"/>
<path d="M438.385 270.871C438.385 270.871 444.599 271.595 449.354 269.21C449.353 269.207 443.63 267.877 438.385 270.871Z" fill="#FFD776"/>
<path d="M438.384 270.871C439.476 267.32 439.25 263.483 437.748 260.093C437.748 260.093 436.908 266.211 438.384 270.871Z" fill="#FFD776"/>
<path d="M440.852 267.846C440.852 267.846 447.025 268.685 451.022 265.896C447.516 265.459 443.964 266.139 440.852 267.846V267.846Z" fill="#FFD776"/>
<path d="M440.85 267.846C440.85 267.846 438.732 261.564 439.294 256.725C439.294 256.725 443.001 262.669 440.85 267.846Z" fill="#FFD776"/>
<path d="M443.082 264.786C443.082 264.786 449.822 264.128 454.222 261.468C454.222 261.471 448.025 261.168 443.082 264.786Z" fill="#FFD776"/>
<path d="M443.083 264.786C443.848 261.023 443.347 257.105 441.663 253.668C441.663 253.668 441.533 261.013 443.083 264.786Z" fill="#FFD776"/>
<path d="M445.102 261.68C445.102 261.68 450.731 261.601 454.141 258.563C454.141 258.563 449.089 258.505 445.102 261.68Z" fill="#FFD776"/>
<path d="M445.101 261.679C443.669 258.408 442.922 254.866 442.908 251.282C442.908 251.282 445.617 256.41 445.101 261.679Z" fill="#FFD776"/>
<path d="M446.988 258.382C446.988 258.382 453.769 257.77 456.898 254.259C456.898 254.259 451.117 255.148 446.988 258.382Z" fill="#FFD776"/>
<path d="M446.987 258.381C445.546 255.683 444.518 252.775 443.938 249.759C445.933 252.165 447.015 255.226 446.987 258.381V258.381Z" fill="#FFD776"/>
<path d="M448.426 255.5C448.426 255.5 453.403 255.137 456.724 251.901C453.618 252.009 450.662 253.292 448.426 255.5V255.5Z" fill="#FFD776"/>
<path d="M448.427 255.5C446.744 252.62 445.395 249.55 444.406 246.351C444.406 246.351 448.606 251.43 448.427 255.5Z" fill="#FFD776"/>
<path d="M449.477 253.049C449.477 253.049 455.068 251.717 456.675 248.566C453.943 249.412 451.466 250.955 449.477 253.049V253.049Z" fill="#FFD776"/>
<path d="M449.476 253.049C447.816 250.834 446.622 248.291 445.971 245.58C447.027 246.51 447.884 247.654 448.487 248.94C449.091 250.225 449.427 251.624 449.476 253.049V253.049Z" fill="#FFD776"/>
<path d="M449.959 251.754C449.959 251.754 453.226 249.26 452.396 243.797C452.396 243.796 449.945 246.675 449.959 251.754Z" fill="#FFD776"/>
<path d="M432.139 277.395C436.081 273.937 439.621 270.026 442.69 265.74C444.215 263.589 445.607 261.342 446.856 259.013L447.321 258.137C447.473 257.844 447.613 257.545 447.76 257.249L448.192 256.358L448.6 255.454C449.144 254.249 449.625 253.015 450.042 251.758C450.165 251.366 450.02 251.309 449.881 251.702C449.434 252.938 448.899 254.143 448.338 255.329L447.91 256.218L447.459 257.093C447.306 257.384 447.161 257.678 447.003 257.966L446.525 258.827C445.241 261.117 443.838 263.334 442.32 265.468C439.262 269.725 435.814 273.673 432.023 277.26C431.709 277.567 431.832 277.674 432.139 277.395Z" fill="#FFD776"/>
<path d="M434.021 286.098C434.021 286.098 437.625 288.67 440.799 288.372C440.799 288.37 437.306 285.908 434.021 286.098Z" fill="#FFD776"/>
<path d="M434.021 286.098C434.021 286.098 436.378 283.269 435.931 280.274C434.696 281.953 434.026 283.997 434.021 286.098Z" fill="#FFD776"/>
<path d="M435.967 285.151C435.967 285.151 439.112 286.875 442.124 286.635C440.291 285.451 438.124 284.929 435.967 285.151Z" fill="#FFD776"/>
<path d="M435.967 285.151C437.277 283.504 437.947 281.421 437.849 279.301C437.849 279.301 436.143 282.363 435.967 285.151Z" fill="#FFD776"/>
<path d="M437.898 284.079C437.898 284.079 440.999 285.855 443.692 285.238C441.924 284.25 439.9 283.845 437.898 284.079Z" fill="#FFD776"/>
<path d="M437.898 284.079C437.898 284.079 438.07 280.29 439.365 277.848C439.365 277.848 440.105 281.798 437.898 284.079Z" fill="#FFD776"/>
<path d="M439.707 282.939C439.707 282.939 443.416 284.044 446.296 283.581C444.213 282.695 441.917 282.472 439.707 282.939V282.939Z" fill="#FFD776"/>
<path d="M439.708 282.939C440.889 281.109 441.431 278.925 441.247 276.74C441.247 276.74 439.665 280.603 439.708 282.939Z" fill="#FFD776"/>
<path d="M441.422 281.726C441.422 281.726 444.423 282.898 446.854 282.023C445.115 281.363 443.22 281.259 441.422 281.726Z" fill="#FFD776"/>
<path d="M441.421 281.726C441.336 279.683 441.67 277.645 442.4 275.742C442.591 277.79 442.253 279.853 441.421 281.726Z" fill="#FFD776"/>
<path d="M443.1 280.384C443.1 280.384 446.82 281.52 449.202 280.334C447.189 279.894 445.106 279.911 443.1 280.384V280.384Z" fill="#FFD776"/>
<path d="M443.101 280.384C442.893 278.643 442.946 276.88 443.26 275.156C443.822 276.861 443.765 278.717 443.101 280.384V280.384Z" fill="#FFD776"/>
<path d="M444.455 279.167C446.14 279.667 447.934 279.625 449.595 279.047C447.926 278.435 446.095 278.478 444.455 279.167Z" fill="#FFD776"/>
<path d="M444.454 279.165C444.155 277.276 444.072 275.357 444.207 273.448C444.207 273.448 445.39 277.047 444.454 279.165Z" fill="#FFD776"/>
<path d="M445.52 278.096C445.52 278.096 448.758 278.594 450.26 277.268C448.637 277.128 447.005 277.413 445.52 278.096V278.096Z" fill="#FFD776"/>
<path d="M445.518 278.095C445.094 276.563 444.985 274.957 445.198 273.38C445.566 274.101 445.785 274.892 445.84 275.703C445.895 276.515 445.785 277.329 445.518 278.095Z" fill="#FFD776"/>
<path d="M446.039 277.51C446.039 277.51 448.285 276.893 448.971 273.818C447.615 274.675 446.581 275.977 446.039 277.51V277.51Z" fill="#FFD776"/>
<path d="M431.312 287.267C434.114 286.283 436.796 284.973 439.306 283.363C440.557 282.551 441.758 281.659 442.9 280.694L443.326 280.33C443.468 280.208 443.603 280.078 443.742 279.951L444.156 279.572L444.558 279.181C445.094 278.659 445.604 278.109 446.084 277.533C446.23 277.352 446.164 277.29 446.01 277.47C445.516 278.029 444.987 278.552 444.444 279.06L444.034 279.439L443.615 279.805C443.474 279.927 443.336 280.051 443.193 280.17L442.761 280.523C441.609 281.46 440.408 282.333 439.164 283.138C436.666 284.735 434.025 286.085 431.276 287.169C431.049 287.263 431.092 287.346 431.312 287.267Z" fill="#FFD776"/>
<path d="M293.009 272.821C293.009 272.821 285.949 274.518 281.258 272.08C281.258 272.08 288.085 270.481 293.009 272.821Z" fill="#FFD776"/>
<path d="M293.01 272.821C293.01 272.821 291.081 267.011 293.552 262.697C293.552 262.697 295.129 267.928 293.01 272.821Z" fill="#FFD776"/>
<path d="M290.591 270.154C290.591 270.154 284.74 270.835 280.264 268.59C280.264 268.592 285.653 267.337 290.591 270.154Z" fill="#FFD776"/>
<path d="M290.59 270.154C289.563 266.811 289.776 263.198 291.19 260.007C291.19 260.007 291.981 265.768 290.59 270.154Z" fill="#FFD776"/>
<path d="M288.268 267.308C288.268 267.308 282.456 268.098 278.693 265.473C281.994 265.06 285.338 265.701 288.268 267.308V267.308Z" fill="#FFD776"/>
<path d="M288.269 267.308C288.269 267.308 290.263 261.393 289.733 256.837C289.733 256.837 286.243 262.433 288.269 267.308Z" fill="#FFD776"/>
<path d="M286.17 264.43C286.17 264.43 279.824 263.811 275.682 261.306C275.682 261.306 281.516 261.022 286.17 264.43Z" fill="#FFD776"/>
<path d="M286.169 264.43C285.448 260.887 285.919 257.199 287.504 253.963C287.504 253.963 287.628 260.871 286.169 264.43Z" fill="#FFD776"/>
<path d="M284.267 261.502C284.267 261.502 278.967 261.429 275.756 258.569C275.756 258.569 280.513 258.513 284.267 261.502Z" fill="#FFD776"/>
<path d="M284.267 261.503C285.615 258.423 286.318 255.089 286.331 251.715C286.331 251.715 283.781 256.541 284.267 261.503Z" fill="#FFD776"/>
<path d="M282.493 258.398C282.493 258.398 276.109 257.821 273.164 254.516C273.162 254.516 278.604 255.353 282.493 258.398Z" fill="#FFD776"/>
<path d="M282.493 258.398C283.849 255.857 284.817 253.12 285.364 250.28C283.485 252.545 282.466 255.427 282.493 258.398Z" fill="#FFD776"/>
<path d="M281.138 255.684C281.138 255.684 276.452 255.342 273.326 252.296C276.25 252.398 279.034 253.605 281.138 255.684V255.684Z" fill="#FFD776"/>
<path d="M281.14 255.685C282.725 252.974 283.995 250.083 284.926 247.071C284.926 247.071 280.969 251.853 281.14 255.685Z" fill="#FFD776"/>
<path d="M280.148 253.378C280.148 253.378 274.885 252.122 273.371 249.154C275.944 249.951 278.276 251.405 280.148 253.378V253.378Z" fill="#FFD776"/>
<path d="M280.146 253.378C281.71 251.292 282.834 248.898 283.447 246.345C282.452 247.221 281.646 248.298 281.078 249.508C280.51 250.718 280.193 252.036 280.146 253.378V253.378Z" fill="#FFD776"/>
<path d="M279.693 252.157C279.693 252.157 276.618 249.81 277.398 244.665C277.398 244.665 279.705 247.375 279.693 252.157Z" fill="#FFD776"/>
<path d="M296.472 276.299C292.76 273.042 289.428 269.361 286.538 265.326C285.103 263.3 283.793 261.185 282.616 258.992L282.179 258.171C282.036 257.895 281.904 257.614 281.765 257.334L281.357 256.496L280.974 255.644C280.462 254.51 280.009 253.348 279.616 252.165C279.5 251.795 279.638 251.741 279.768 252.112C280.188 253.276 280.694 254.41 281.222 255.527L281.625 256.363L282.05 257.188C282.193 257.462 282.33 257.739 282.482 258.009L282.932 258.819C284.141 260.974 285.463 263.061 286.891 265.071C289.769 269.078 293.015 272.795 296.583 276.172C296.878 276.46 296.76 276.561 296.472 276.299Z" fill="#FFD776"/>
<path d="M291.249 246.005C291.634 246.814 291.935 247.663 292.147 248.537C292.354 249.407 292.497 250.292 292.575 251.185C292.621 251.743 292.499 252.56 292.81 253.066C292.388 253.421 291.855 253.73 291.391 254.065C292.112 254.037 292.413 253.911 292.52 254.696C292.705 256.205 292.659 257.731 292.816 259.243C292.843 259.96 292.944 260.672 293.118 261.366C293.294 261.892 293.771 262.509 293.69 263.099C293.59 263.818 291.524 264.173 291.011 264.488C291.661 264.692 292.832 264.913 293.47 264.588C293.186 264.999 292.821 265.343 292.397 265.598C292.939 265.519 293.484 265.336 293.984 265.268C294.122 265.733 294.427 266.176 294.601 266.651C294.828 267.261 295.087 267.816 295.326 268.419C295.643 269.257 296.709 270.991 296.38 271.873C296.064 272.749 294.158 274.192 293.294 274.227C293.946 274.312 294.61 274.255 295.239 274.059C295.869 273.864 296.451 273.533 296.946 273.09C297.762 274.74 298.228 276.548 298.315 278.395C298.4 279.209 298.221 280.03 297.805 280.73C297.389 281.43 296.76 281.971 296.014 282.269C295.206 282.538 294.328 282.483 293.557 282.118C293.391 281.822 293.257 281.522 293.102 281.217C292.362 279.726 291.723 278.184 291.189 276.602C290.163 273.445 289.48 270.183 289.152 266.873C288.443 260.239 289.963 253.836 290.46 247.266C290.461 247.257 290.458 247.248 290.452 247.24C290.446 247.233 290.438 247.229 290.428 247.228C290.419 247.227 290.41 247.23 290.403 247.236C290.396 247.243 290.392 247.251 290.391 247.261C290.029 250.869 289.28 254.409 288.799 258.011C288.374 261.183 288.324 264.397 288.65 267.581C289.022 270.908 289.745 274.183 290.807 277.349C291.404 279.414 292.163 281.427 293.075 283.367C292.748 284.01 292.265 284.556 291.673 284.954C291.081 285.352 290.399 285.589 289.693 285.641C287.895 285.788 286.534 284.614 285.68 283.095C285.29 282.405 284.964 281.607 284.635 280.911C284.35 280.288 284.347 279.399 283.878 278.878C284.364 278.465 284.972 278.225 285.487 277.86C284.871 277.721 284.236 277.691 283.611 277.773C283.556 277.205 283.096 276.054 283.234 275.529C283.372 275.004 284.485 274.624 284.945 274.412C284.423 274.234 283.873 274.155 283.324 274.178C282.535 272.92 282.451 270.858 282.336 269.418C282.256 268.326 282.36 267.185 282.238 266.104C283.007 266.047 283.791 265.879 284.595 265.852C285.593 265.887 286.592 265.773 287.558 265.511C286.875 265.362 286.176 265.24 285.488 265.162C284.426 265.036 283.471 264.526 282.429 264.404C282.451 263.932 282.445 263.459 282.412 262.987C282.429 262.506 282.717 258.457 283.117 258.52C283.997 258.642 284.961 258.527 285.875 258.679C285.381 258.357 284.769 257.894 284.279 257.605C284.779 257.668 285.546 257.53 285.967 257.542C285.55 257.238 284.412 256.374 283.939 256.595C284.418 255.901 284.763 255.12 284.957 254.295C285.206 253.552 285.543 252.845 285.961 252.187C286.248 251.718 286.64 251.282 286.862 250.819C287.258 251.036 288.073 250.679 288.517 250.679C288.203 250.285 287.828 249.946 287.406 249.678C288.401 247.795 289.783 246.302 289.909 244.021C289.903 244.319 291.07 245.633 291.249 246.005Z" fill="#81A4FF"/>
<path d="M290.464 247.266C289.966 253.833 288.447 260.238 289.155 266.872C289.484 270.182 290.167 273.445 291.192 276.602C291.726 278.183 292.366 279.725 293.106 281.217C293.26 281.521 293.395 281.821 293.56 282.117C293.474 282.09 293.392 282.054 293.313 282.008C293.357 282.474 293.277 282.944 293.081 283.367C292.168 281.426 291.41 279.414 290.813 277.349C289.751 274.182 289.027 270.907 288.656 267.581C288.329 264.396 288.379 261.183 288.805 258.01C289.286 254.411 290.035 250.869 290.397 247.26C290.396 247.255 290.396 247.25 290.398 247.244C290.4 247.239 290.402 247.235 290.406 247.231C290.409 247.227 290.414 247.224 290.419 247.222C290.423 247.22 290.429 247.22 290.434 247.22C290.439 247.221 290.444 247.222 290.448 247.225C290.453 247.227 290.457 247.231 290.46 247.236C290.462 247.24 290.464 247.245 290.465 247.25C290.466 247.255 290.466 247.261 290.464 247.266V247.266Z" fill="#2A519E"/>
<path d="M303.375 297.663C303.753 298.092 302.435 299.07 302.041 298.669C301.267 297.89 293.611 284.368 293.078 283.367C293.274 282.944 293.355 282.474 293.311 282.008C293.389 282.054 293.472 282.09 293.558 282.117C294.136 283.325 302.511 296.657 303.375 297.663Z" fill="#56548C"/>
<path d="M266.336 290.689C266.827 291.156 267.365 291.569 267.941 291.921C268.514 292.269 269.113 292.573 269.731 292.829C270.117 292.989 270.727 293.082 271.018 293.424C271.365 293.188 271.703 292.86 272.045 292.586C271.865 293.118 271.709 293.314 272.246 293.568C273.279 294.044 274.375 294.348 275.417 294.802C275.921 294.981 276.406 295.215 276.861 295.5C277.197 295.748 277.53 296.241 277.968 296.311C278.502 296.397 279.213 294.937 279.551 294.624C279.586 295.278 279.42 295.927 279.074 296.478C279.43 296.358 279.756 296.162 280.031 295.903C279.853 296.29 279.599 296.656 279.442 297.012C279.743 297.219 279.99 297.544 280.289 297.781C280.672 298.086 281.01 298.403 281.386 298.715C281.912 299.138 282.909 300.317 283.609 300.269C284.59 300.01 285.436 299.374 285.972 298.494C285.887 299 285.699 299.481 285.419 299.906C285.139 300.332 284.774 300.691 284.348 300.962C285.341 301.936 286.523 302.686 287.818 303.162C288.379 303.407 289.003 303.457 289.594 303.304C290.186 303.151 290.711 302.803 291.09 302.314C291.461 301.771 291.618 301.105 291.529 300.449C291.355 300.26 291.172 300.093 290.99 299.91C290.092 299.026 289.137 298.207 288.13 297.456C286.111 295.99 283.94 294.755 281.657 293.774C277.089 291.77 272.195 291.476 267.408 290.384C267.404 290.384 267.401 290.383 267.398 290.381C267.395 290.379 267.392 290.376 267.39 290.373C267.388 290.37 267.387 290.366 267.386 290.363C267.386 290.359 267.386 290.356 267.386 290.352C267.387 290.348 267.389 290.345 267.391 290.342C267.393 290.339 267.395 290.336 267.398 290.335C267.401 290.333 267.405 290.331 267.408 290.331C267.412 290.33 267.416 290.33 267.419 290.331C270.069 290.866 272.756 291.095 275.427 291.539C277.78 291.929 280.078 292.607 282.273 293.559C284.558 294.577 286.729 295.845 288.746 297.341C290.084 298.246 291.348 299.26 292.526 300.372C293.056 300.272 293.553 300.034 293.968 299.682C294.383 299.329 294.703 298.874 294.898 298.359C295.403 297.053 294.871 295.777 293.979 294.805C293.574 294.363 293.079 293.94 292.657 293.542C292.276 293.191 291.645 292.991 291.377 292.525C290.976 292.795 290.669 293.194 290.295 293.497C290.333 293.007 290.453 292.528 290.651 292.08C290.257 291.913 289.54 291.314 289.137 291.299C288.735 291.285 288.214 292.03 287.961 292.326C287.95 291.896 288.016 291.468 288.155 291.063C287.436 290.196 285.986 289.673 284.986 289.269C284.227 288.967 283.391 288.79 282.649 288.459C282.437 289.019 282.142 289.565 281.943 290.157C281.746 290.908 281.443 291.626 281.042 292.287C281.087 291.745 281.157 291.197 281.254 290.667C281.402 289.846 281.25 289.025 281.397 288.22C281.056 288.131 280.72 288.022 280.392 287.892C280.045 287.797 277.099 287.111 277.055 287.422C276.946 288.105 276.649 288.798 276.553 289.512C276.434 289.07 276.242 288.514 276.144 288.085C276.082 288.471 275.808 289.012 275.726 289.328C275.602 288.949 275.24 287.91 275.502 287.607C274.902 287.809 274.269 287.892 273.638 287.853C273.055 287.873 272.476 287.967 271.914 288.132C271.516 288.241 271.12 288.434 270.741 288.498C270.807 288.841 270.371 289.369 270.273 289.698C270.062 289.377 269.905 289.023 269.807 288.65C268.246 288.972 266.875 289.669 265.223 289.255C265.434 289.309 266.11 290.472 266.336 290.689Z" fill="#81A4FF"/>
<path d="M267.41 290.384C272.198 291.476 277.094 291.77 281.659 293.774C283.942 294.755 286.113 295.99 288.133 297.456C289.14 298.207 290.095 299.026 290.992 299.91C291.177 300.093 291.358 300.26 291.532 300.449C291.532 300.379 291.524 300.309 291.509 300.24C291.831 300.376 292.183 300.42 292.528 300.367C291.35 299.254 290.086 298.24 288.749 297.336C286.731 295.839 284.56 294.571 282.275 293.554C280.081 292.601 277.782 291.923 275.429 291.533C272.758 291.091 270.072 290.86 267.422 290.326C267.418 290.325 267.414 290.325 267.41 290.326C267.406 290.327 267.403 290.328 267.4 290.33C267.396 290.333 267.394 290.335 267.392 290.339C267.389 290.342 267.388 290.346 267.387 290.349C267.387 290.353 267.387 290.357 267.387 290.361C267.388 290.365 267.39 290.369 267.392 290.372C267.394 290.375 267.397 290.378 267.4 290.38C267.403 290.382 267.407 290.384 267.41 290.384V290.384Z" fill="#56548C"/>
<path d="M300.284 311.186C300.505 311.565 301.591 310.728 301.395 310.345C301.013 309.595 293.123 300.99 292.527 300.368C292.182 300.42 291.83 300.377 291.508 300.241C291.523 300.31 291.531 300.38 291.531 300.45C292.26 301.149 299.76 310.316 300.284 311.186Z" fill="#2A519E"/>
<path d="M279.118 267.067C279.562 267.474 279.962 267.928 280.312 268.422C280.658 268.914 280.967 269.433 281.238 269.973C281.405 270.31 281.533 270.857 281.855 271.092C281.678 271.425 281.423 271.758 281.21 272.089C281.656 271.884 281.814 271.727 282.074 272.194C282.568 273.092 282.917 274.063 283.391 274.973C283.586 275.415 283.827 275.836 284.109 276.227C284.35 276.511 284.803 276.774 284.899 277.166C285.015 277.643 283.806 278.403 283.562 278.733C284.131 278.714 284.679 278.512 285.13 278.155C285.054 278.486 284.91 278.797 284.708 279.068C285.028 278.878 285.325 278.62 285.621 278.446C285.824 278.703 286.125 278.901 286.354 279.153C286.648 279.477 286.949 279.758 287.249 280.074C287.656 280.516 288.756 281.329 288.77 281.969C288.622 282.878 288.138 283.694 287.418 284.249C287.849 284.133 288.251 283.924 288.597 283.637C288.944 283.35 289.227 282.991 289.427 282.584C290.349 283.407 291.091 284.42 291.605 285.556C291.862 286.045 291.955 286.606 291.869 287.154C291.782 287.702 291.522 288.206 291.128 288.587C290.687 288.966 290.123 289.161 289.548 289.132C289.37 288.989 289.211 288.836 289.039 288.685C288.203 287.941 287.417 287.139 286.688 286.285C285.26 284.57 284.02 282.7 282.991 280.708C280.897 276.73 280.259 272.315 278.937 268.062C278.936 268.059 278.934 268.056 278.932 268.053C278.93 268.051 278.928 268.049 278.925 268.048C278.923 268.046 278.919 268.045 278.916 268.045C278.913 268.045 278.91 268.045 278.907 268.046C278.904 268.047 278.902 268.048 278.899 268.05C278.897 268.052 278.895 268.055 278.893 268.058C278.892 268.061 278.891 268.064 278.891 268.067C278.891 268.07 278.891 268.073 278.892 268.076C279.562 270.435 279.972 272.851 280.567 275.238C281.088 277.34 281.855 279.369 282.851 281.283C283.911 283.274 285.18 285.142 286.634 286.853C287.522 287.994 288.499 289.06 289.554 290.04C289.509 290.529 289.342 290.997 289.069 291.401C288.797 291.805 288.428 292.131 287.997 292.348C287.477 292.58 286.901 292.651 286.342 292.553C285.782 292.454 285.263 292.19 284.849 291.794C284.432 291.463 284.029 291.047 283.649 290.695C283.316 290.38 283.094 289.822 282.668 289.616C282.871 289.23 283.193 288.921 283.425 288.559C283.004 288.631 282.598 288.778 282.226 288.992C282.05 288.649 281.476 288.045 281.431 287.681C281.387 287.318 281.991 286.789 282.228 286.535C281.856 286.56 281.491 286.653 281.152 286.81C280.344 286.227 279.778 284.954 279.349 284.08C279.028 283.415 278.809 282.671 278.464 282.025C278.933 281.789 279.383 281.479 279.879 281.252C280.515 281.014 281.112 280.683 281.653 280.267C281.187 280.352 280.718 280.457 280.267 280.588C279.57 280.786 278.843 280.714 278.159 280.909C278.055 280.607 277.934 280.312 277.796 280.025C277.687 279.719 276.86 277.102 277.127 277.037C277.71 276.886 278.286 276.563 278.897 276.42C278.508 276.346 278.008 276.215 277.629 276.161C277.958 276.071 278.405 275.782 278.673 275.684C278.336 275.601 277.407 275.356 277.165 275.617C277.293 275.057 277.315 274.477 277.231 273.908C277.203 273.377 277.239 272.845 277.337 272.323C277.399 271.954 277.537 271.58 277.563 271.23C277.865 271.263 278.288 270.827 278.566 270.712C278.272 270.546 277.953 270.431 277.622 270.372C277.778 268.931 278.274 267.634 277.786 266.169C277.853 266.359 278.913 266.88 279.118 267.067Z" fill="#5B8BF4"/>
<path d="M278.94 268.063C280.262 272.316 280.9 276.73 282.995 280.709C284.024 282.701 285.264 284.571 286.692 286.286C287.421 287.14 288.206 287.942 289.042 288.686C289.215 288.837 289.373 288.99 289.551 289.133C289.49 289.139 289.427 289.137 289.366 289.129C289.51 289.41 289.576 289.726 289.558 290.042C288.503 289.062 287.526 287.996 286.638 286.855C285.184 285.144 283.915 283.277 282.855 281.286C281.859 279.372 281.092 277.342 280.571 275.24C279.976 272.854 279.566 270.438 278.896 268.079C278.895 268.076 278.894 268.072 278.895 268.069C278.895 268.066 278.896 268.063 278.897 268.06C278.9 268.054 278.904 268.05 278.91 268.048C278.916 268.046 278.923 268.046 278.928 268.049C278.934 268.052 278.938 268.057 278.94 268.063V268.063Z" fill="#3458B2"/>
<path d="M299.537 296.224C299.882 296.394 299.244 297.444 298.896 297.297C298.217 297.01 290.145 290.534 289.561 290.044C289.579 289.727 289.513 289.412 289.369 289.131C289.431 289.139 289.493 289.14 289.554 289.135C290.215 289.739 298.745 295.817 299.537 296.224Z" fill="#3458B2"/>
<path d="M461.561 303.543C464.833 301.499 466.298 298.406 465.58 296.862C464.801 295.188 460.965 294.288 456.873 296.519C457.007 295.888 459.01 286.238 456.873 285.386C455.159 284.703 451.625 290.011 450.845 291.209C451.631 284.239 451.464 280.585 450.342 280.247C449.519 279.999 448.179 281.54 446.323 284.872C445.649 282.472 444.979 281.273 444.314 281.273C443.011 281.278 441.727 285.903 440.463 295.147C439.841 291.772 438.519 285.745 436.779 285.726C434.605 285.702 432.906 295.062 432.425 297.887C429.6 294.84 427.87 293.527 427.234 293.948C426.429 294.48 427.378 297.791 430.081 303.882L461.561 303.543Z" fill="#3458B2"/>
<path d="M477.054 267.107C479.872 264.224 479.872 259.55 477.054 256.667C474.236 253.784 469.667 253.784 466.849 256.667C464.031 259.55 464.031 264.224 466.849 267.107C469.667 269.99 474.236 269.99 477.054 267.107Z" fill="#FFD776"/>
<path d="M471.952 267.871C475.184 267.871 477.803 265.191 477.803 261.886C477.803 258.58 475.184 255.901 471.952 255.901C468.721 255.901 466.102 258.58 466.102 261.886C466.102 265.191 468.721 267.871 471.952 267.871Z" fill="#FFC331"/>
<path d="M474.184 263.242C474.189 263.458 474.146 263.671 474.059 263.867C473.972 264.064 473.843 264.237 473.681 264.376C473.277 264.702 472.787 264.897 472.274 264.938V266.109H471.638V264.984C471.279 264.984 470.921 264.955 470.568 264.895C470.275 264.852 469.99 264.77 469.719 264.65V263.863C470.023 263.998 470.339 264.1 470.664 264.168C470.984 264.243 471.31 264.283 471.638 264.287V262.066C471.112 261.931 470.626 261.669 470.218 261.303C470.081 261.154 469.975 260.977 469.905 260.785C469.835 260.593 469.803 260.388 469.811 260.183C469.807 259.975 469.85 259.769 469.937 259.58C470.024 259.392 470.152 259.227 470.312 259.098C470.694 258.796 471.155 258.617 471.637 258.583V257.664H472.273V258.573C472.874 258.589 473.468 258.716 474.025 258.946L473.769 259.608C473.291 259.412 472.787 259.293 472.273 259.254V261.445C472.677 261.564 473.066 261.73 473.433 261.937C473.663 262.071 473.858 262.26 474 262.487C474.128 262.717 474.192 262.978 474.184 263.242ZM470.647 260.173C470.641 260.286 470.658 260.398 470.697 260.504C470.735 260.61 470.793 260.707 470.868 260.789C471.092 260.99 471.354 261.14 471.638 261.231V259.278C471.366 259.307 471.109 259.417 470.897 259.593C470.817 259.666 470.753 259.755 470.71 259.855C470.667 259.955 470.645 260.064 470.647 260.173V260.173ZM473.345 263.308C473.35 263.2 473.333 263.092 473.295 262.991C473.257 262.89 473.199 262.797 473.126 262.72C472.875 262.513 472.585 262.36 472.274 262.273V264.237C472.988 264.136 473.345 263.826 473.345 263.308Z" fill="white"/>
<path d="M479.183 219.3V239.703H444.367V219.3H479.183ZM477.488 238.358V220.646H446.067V238.358L477.488 238.358Z" fill="#FFC331"/>
<path d="M477.487 221.057V238.36H446.066V237.949H477.126V221.057H477.487Z" fill="#FFC331"/>
<path d="M477.487 220.647V221.058H446.428V237.949H446.066V220.647H477.487Z" fill="#FFC331"/>
<path d="M477.124 236.453V237.949H475.555C475.569 237.538 475.742 237.149 476.037 236.868C476.331 236.588 476.722 236.438 477.124 236.453V236.453Z" fill="#FFC331"/>
<path d="M477.125 222.553V236.453C476.723 236.438 476.332 236.587 476.038 236.867C475.743 237.147 475.57 237.535 475.555 237.946H447.994C447.98 237.535 447.806 237.147 447.512 236.867C447.218 236.587 446.827 236.438 446.426 236.453V222.553C446.828 222.567 447.218 222.417 447.512 222.137C447.806 221.856 447.98 221.468 447.994 221.057H475.553C475.568 221.469 475.742 221.857 476.036 222.138C476.331 222.418 476.722 222.567 477.125 222.553V222.553ZM473.147 229.499C473.147 228.48 472.612 227.656 471.951 227.656C471.291 227.656 470.755 228.48 470.755 229.499C470.755 230.517 471.29 231.342 471.951 231.342C472.613 231.342 473.147 230.52 473.147 229.502V229.499ZM469.314 229.499C469.314 226.405 465.939 223.898 461.776 223.898C457.614 223.898 454.238 226.405 454.238 229.499C454.238 232.593 457.612 235.101 461.776 235.101C465.941 235.101 469.314 232.596 469.314 229.502V229.499ZM452.798 229.499C452.798 228.48 452.261 227.656 451.601 227.656C450.94 227.656 450.404 228.48 450.404 229.499C450.404 230.517 450.94 231.342 451.601 231.342C452.261 231.342 452.798 230.52 452.798 229.502V229.499Z" fill="#FFD776"/>
<path d="M477.124 221.057V222.553C476.723 222.567 476.332 222.417 476.037 222.137C475.743 221.857 475.569 221.468 475.555 221.057H477.124Z" fill="#FFC331"/>
<path d="M471.952 227.66C472.613 227.66 473.147 228.484 473.147 229.502C473.147 230.521 472.613 231.346 471.952 231.346C471.292 231.346 470.756 230.52 470.756 229.502C470.756 228.484 471.29 227.66 471.952 227.66Z" fill="#FFC331"/>
<path d="M461.775 223.901C465.937 223.901 469.313 226.408 469.313 229.502C469.313 232.596 465.937 235.104 461.775 235.104C457.612 235.104 454.236 232.596 454.236 229.502C454.236 226.409 457.611 223.901 461.775 223.901Z" fill="#FFC331"/>
<path d="M451.601 227.66C452.261 227.66 452.798 228.484 452.798 229.502C452.798 230.521 452.261 231.346 451.601 231.346C450.94 231.346 450.404 230.52 450.404 229.502C450.404 228.484 450.94 227.66 451.601 227.66Z" fill="#FFC331"/>
<path d="M446.428 221.057H447.994C447.98 221.468 447.806 221.856 447.512 222.137C447.218 222.417 446.827 222.567 446.426 222.553L446.428 221.057Z" fill="#FFC331"/>
<path d="M447.994 237.949H446.426V236.455C446.827 236.441 447.218 236.59 447.512 236.87C447.806 237.15 447.98 237.538 447.994 237.949Z" fill="#FFC331"/>
<path d="M462.839 226.722C463.188 226.841 463.487 227.078 463.688 227.393C463.888 227.709 463.979 228.085 463.944 228.459V228.59H463.013C463.031 228.399 463.005 228.206 462.939 228.027C462.872 227.848 462.766 227.686 462.629 227.556L462.227 229.146C463.396 229.32 464.008 229.754 464.008 230.675V230.745C464.008 231.796 463.213 232.439 461.826 232.439C461.68 232.439 461.543 232.43 461.407 232.422L461.16 233.412H460.403L460.695 232.256C460.347 232.138 460.047 231.907 459.839 231.598C459.632 231.289 459.528 230.919 459.545 230.545V230.493H460.476C460.464 230.672 460.497 230.852 460.57 231.016C460.644 231.18 460.756 231.322 460.896 231.431L461.316 229.754C460.111 229.564 459.609 229.085 459.609 228.269V228.199C459.609 227.174 460.473 226.557 461.769 226.557C461.888 226.557 462.007 226.566 462.116 226.575L462.363 225.593H463.121L462.839 226.722ZM461.497 229.041L461.929 227.321C461.881 227.314 461.832 227.311 461.784 227.313H461.747C461.081 227.313 460.56 227.617 460.56 228.147V228.19C460.557 228.634 460.795 228.911 461.497 229.041ZM463.049 230.788V230.745C463.049 230.249 462.74 229.987 462.045 229.86L461.589 231.685C461.661 231.692 461.735 231.695 461.808 231.694H461.844C462.557 231.692 463.049 231.361 463.049 230.788Z" fill="white"/>
<path d="M304.768 303.543C308.04 301.499 309.505 298.406 308.787 296.862C308.009 295.188 304.172 294.288 300.08 296.519C300.214 295.888 302.217 286.238 300.08 285.386C298.366 284.703 294.832 290.011 294.052 291.209C294.838 284.239 294.671 280.585 293.549 280.247C292.726 279.999 291.386 281.54 289.53 284.872C288.855 282.472 288.186 281.273 287.521 281.273C286.218 281.278 284.934 285.903 283.67 295.147C283.048 291.772 281.726 285.745 279.986 285.726C277.812 285.702 276.113 295.062 275.632 297.887C272.808 294.84 271.077 293.527 270.441 293.948C269.636 294.48 270.585 297.791 273.288 303.882L304.768 303.543Z" fill="#3458B2"/>
<path d="M278.596 203.775C279.516 199.808 277.119 195.829 273.241 194.888C269.363 193.946 265.473 196.399 264.553 200.366C263.633 204.332 266.03 208.311 269.908 209.253C273.786 210.194 277.675 207.742 278.596 203.775Z" fill="#FFD776"/>
<path d="M271.574 208.055C274.805 208.055 277.424 205.375 277.424 202.07C277.424 198.765 274.805 196.085 271.574 196.085C268.342 196.085 265.723 198.765 265.723 202.07C265.723 205.375 268.342 208.055 271.574 208.055Z" fill="#FFC331"/>
<path d="M273.808 203.426C273.813 203.641 273.77 203.855 273.683 204.051C273.595 204.247 273.466 204.421 273.304 204.559C272.901 204.885 272.411 205.081 271.898 205.122V206.293H271.262V205.167C270.903 205.168 270.545 205.138 270.191 205.079C269.898 205.036 269.613 204.954 269.342 204.834V204.046C269.646 204.181 269.962 204.283 270.287 204.352C270.607 204.427 270.934 204.467 271.262 204.471V202.25C270.736 202.115 270.249 201.853 269.842 201.487C269.705 201.337 269.598 201.161 269.528 200.969C269.458 200.776 269.426 200.572 269.434 200.367C269.43 200.159 269.473 199.952 269.56 199.764C269.647 199.575 269.776 199.41 269.936 199.281C270.318 198.98 270.779 198.8 271.26 198.767V197.85H271.897V198.759C272.498 198.775 273.091 198.902 273.649 199.132L273.392 199.794C272.914 199.598 272.41 199.479 271.897 199.441V201.631C272.3 201.751 272.689 201.916 273.057 202.124C273.287 202.257 273.481 202.446 273.624 202.674C273.751 202.902 273.815 203.163 273.808 203.426V203.426ZM270.27 200.357C270.264 200.469 270.281 200.582 270.32 200.688C270.358 200.793 270.416 200.89 270.492 200.972C270.715 201.173 270.978 201.324 271.262 201.414V199.461C270.99 199.491 270.733 199.601 270.521 199.777C270.441 199.849 270.376 199.939 270.333 200.039C270.29 200.139 270.268 200.247 270.27 200.357V200.357ZM272.969 203.491C272.974 203.383 272.956 203.275 272.919 203.174C272.881 203.073 272.823 202.981 272.749 202.903C272.499 202.696 272.209 202.544 271.898 202.456V204.42C272.612 204.319 272.969 204.01 272.969 203.491V203.491Z" fill="white"/>
<path d="M438.817 184.369H291.133V303.087H438.817V184.369Z" fill="#FFC331"/>
<path d="M440.5 295.752H289.451V303.087H440.5V295.752Z" fill="#F9F8F7"/>
<path d="M442.131 176.829H287.82V184.373H442.131V176.829Z" fill="#FFC331"/>
<g style="mix-blend-mode:multiply" opacity="0.5">
<path d="M442.131 181.915H287.82V184.374H442.131V181.915Z" fill="#FFC331"/>
</g>
<path d="M288.537 168.69H441.411C442.093 168.69 442.769 168.828 443.399 169.095C444.029 169.362 444.601 169.753 445.084 170.246C445.566 170.74 445.948 171.325 446.209 171.97C446.47 172.614 446.605 173.305 446.605 174.003V176.829H283.344V174.003C283.344 172.594 283.891 171.243 284.865 170.246C285.839 169.25 287.16 168.69 288.537 168.69V168.69Z" fill="#FFC331"/>
<g style="mix-blend-mode:multiply" opacity="0.5">
<path d="M446.605 174.371H283.344V176.829H446.605V174.371Z" fill="#FFC331"/>
</g>
<path d="M441.89 189.861V208.825H285.25V192.825L291.329 186.393H438.614L441.89 189.861Z" fill="#E05A00"/>
<g style="mix-blend-mode:multiply" opacity="0.5">
<path d="M438.818 208.833V217.412C438.761 216.97 438.734 216.525 438.735 216.08C438.735 217.488 438.463 218.883 437.935 220.185C437.408 221.486 436.635 222.668 435.661 223.664C434.686 224.66 433.53 225.45 432.257 225.988C430.984 226.527 429.621 226.804 428.243 226.803H428.148C425.367 226.803 422.7 225.673 420.733 223.662C418.766 221.651 417.66 218.924 417.658 216.08C417.657 218.924 416.552 221.653 414.584 223.664C412.617 225.675 409.95 226.804 407.168 226.803H407.073C405.696 226.804 404.332 226.527 403.059 225.989C401.786 225.45 400.63 224.661 399.656 223.665C398.682 222.669 397.909 221.486 397.382 220.185C396.855 218.883 396.583 217.488 396.583 216.08C396.583 217.489 396.312 218.884 395.784 220.186C395.256 221.487 394.483 222.67 393.509 223.666C392.534 224.662 391.377 225.451 390.104 225.99C388.831 226.528 387.467 226.804 386.089 226.803H386C383.219 226.804 380.552 225.675 378.584 223.664C376.617 221.653 375.511 218.924 375.51 216.08C375.508 218.924 374.402 221.651 372.436 223.662C370.469 225.673 367.802 226.803 365.021 226.803H364.925C362.144 226.804 359.477 225.675 357.509 223.664C355.542 221.653 354.436 218.924 354.435 216.08C354.435 217.489 354.163 218.884 353.635 220.185C353.107 221.487 352.334 222.669 351.36 223.665C350.385 224.661 349.228 225.45 347.956 225.989C346.683 226.527 345.319 226.804 343.941 226.803H343.852C342.475 226.804 341.111 226.527 339.838 225.989C338.566 225.451 337.409 224.661 336.435 223.665C335.461 222.669 334.688 221.487 334.161 220.185C333.634 218.883 333.362 217.488 333.362 216.08C333.362 217.489 333.09 218.884 332.563 220.185C332.035 221.487 331.262 222.669 330.287 223.665C329.313 224.661 328.156 225.451 326.883 225.989C325.61 226.528 324.246 226.804 322.869 226.803H322.774C319.992 226.803 317.325 225.674 315.357 223.663C313.389 221.652 312.282 218.925 312.279 216.08C312.28 217.488 312.008 218.883 311.481 220.185C310.954 221.487 310.181 222.669 309.207 223.665C308.233 224.661 307.076 225.451 305.803 225.989C304.531 226.527 303.167 226.804 301.79 226.803H301.701C300.323 226.804 298.959 226.527 297.687 225.989C296.414 225.451 295.258 224.661 294.283 223.665C293.309 222.669 292.536 221.487 292.009 220.185C291.482 218.883 291.211 217.488 291.211 216.08C291.211 216.507 291.186 216.935 291.135 217.36V208.835L438.818 208.833Z" fill="#FFC331"/>
</g>
<path d="M324.061 184.328L312.286 206.757H291.207L307.697 184.328H324.061Z" fill="#F9F8F7"/>
<path d="M356.789 184.328L354.435 206.757H333.357L340.426 184.328H356.789Z" fill="#F9F8F7"/>
<path d="M389.522 184.328L396.583 206.757H375.512L373.158 184.328H389.522Z" fill="#F9F8F7"/>
<path d="M422.248 184.328L438.738 206.757H417.66L405.885 184.328H422.248Z" fill="#F9F8F7"/>
<path d="M307.697 184.328L291.208 206.757H270.129L291.326 184.328H307.697Z" fill="#81A4FF"/>
<path d="M340.425 184.328L333.356 206.757H312.285L324.06 184.328H340.425Z" fill="#81A4FF"/>
<path d="M373.16 184.328L375.514 206.757H354.436L356.789 184.328H373.16Z" fill="#81A4FF"/>
<path d="M405.887 184.328L417.662 206.757H396.584L389.523 184.328H405.887Z" fill="#81A4FF"/>
<path d="M438.612 184.328L459.816 206.757H438.74L422.25 184.328H438.612Z" fill="#81A4FF"/>
<path d="M449.321 224.738H449.229C446.445 224.738 443.776 223.607 441.808 221.594C439.84 219.581 438.734 216.85 438.734 214.003V206.761H459.811V214.006C459.81 216.851 458.705 219.58 456.738 221.593C454.771 223.605 452.103 224.737 449.321 224.738Z" fill="#5B8BF4"/>
<path d="M428.245 224.738H428.152C425.369 224.738 422.7 223.607 420.732 221.594C418.764 219.581 417.658 216.85 417.658 214.003V206.761H438.739V214.006C438.739 216.852 437.633 219.582 435.665 221.595C433.697 223.607 431.028 224.738 428.245 224.738Z" fill="#E9E5D9"/>
<path d="M407.169 224.738H407.076C404.293 224.738 401.624 223.607 399.656 221.594C397.688 219.581 396.582 216.85 396.582 214.003V206.761H417.658V214.006C417.658 216.851 416.552 219.58 414.585 221.593C412.618 223.605 409.951 224.737 407.169 224.738V224.738Z" fill="#5B8BF4"/>
<path d="M386.094 224.738H386.002C383.219 224.738 380.55 223.607 378.582 221.594C376.613 219.581 375.508 216.85 375.508 214.003V206.761H396.584V214.006C396.583 216.851 395.478 219.581 393.511 221.593C391.544 223.606 388.876 224.737 386.094 224.738Z" fill="#E9E5D9"/>
<path d="M365.018 224.738H364.926C362.143 224.738 359.473 223.607 357.505 221.594C355.537 219.581 354.432 216.85 354.432 214.003V206.761H375.507V214.006C375.507 216.851 374.401 219.58 372.434 221.593C370.467 223.605 367.8 224.737 365.018 224.738V224.738Z" fill="#5B8BF4"/>
<path d="M343.944 224.738H343.852C341.068 224.738 338.399 223.607 336.431 221.594C334.463 219.581 333.357 216.85 333.357 214.003V206.761H354.433V214.006C354.432 216.851 353.327 219.58 351.36 221.593C349.393 223.605 346.726 224.737 343.944 224.738V224.738Z" fill="#E9E5D9"/>
<path d="M322.87 224.738H322.777C319.994 224.738 317.325 223.607 315.357 221.594C313.389 219.581 312.283 216.85 312.283 214.003V206.761H333.359V214.006C333.359 216.851 332.253 219.58 330.287 221.593C328.32 223.605 325.652 224.737 322.87 224.738V224.738Z" fill="#5B8BF4"/>
<path d="M301.792 224.738H301.699C298.916 224.738 296.247 223.607 294.279 221.594C292.311 219.581 291.205 216.85 291.205 214.003V206.761H312.281V214.006C312.281 216.851 311.175 219.58 309.208 221.593C307.242 223.605 304.574 224.737 301.792 224.738Z" fill="#E9E5D9"/>
<path d="M280.716 224.738H280.623C277.84 224.738 275.171 223.607 273.203 221.594C271.235 219.581 270.129 216.85 270.129 214.003V206.761H291.205V214.006C291.204 216.851 290.099 219.58 288.132 221.593C286.165 223.605 283.498 224.737 280.716 224.738Z" fill="#5B8BF4"/>
<path d="M342.598 228.541H305.471V303.086H342.598V228.541Z" fill="#3458B2"/>
<path d="M340.113 231.509H307.957V303.086H340.113V231.509Z" fill="#2A519E"/>
<path d="M339.477 232.158H307.957V303.086H339.477V232.158Z" fill="#2A519E"/>
<path d="M339.479 232.158H308.594V303.086H339.479V232.158Z" fill="#81A4FF"/>
<path d="M316.232 268.844C316.232 269.347 316.086 269.839 315.813 270.257C315.539 270.675 315.151 271.001 314.697 271.194C314.243 271.386 313.743 271.436 313.261 271.338C312.778 271.24 312.336 270.998 311.988 270.642C311.64 270.287 311.403 269.834 311.308 269.34C311.212 268.847 311.261 268.336 311.449 267.871C311.637 267.406 311.956 267.009 312.365 266.73C312.773 266.45 313.254 266.301 313.746 266.301C314.405 266.301 315.037 266.569 315.503 267.046C315.97 267.523 316.232 268.17 316.232 268.844V268.844Z" fill="#6C94EF"/>
<path d="M316.868 268.196C316.868 268.699 316.723 269.191 316.449 269.609C316.176 270.027 315.788 270.353 315.334 270.546C314.88 270.738 314.38 270.788 313.898 270.69C313.415 270.592 312.973 270.35 312.625 269.995C312.277 269.639 312.04 269.186 311.944 268.693C311.848 268.199 311.897 267.688 312.086 267.224C312.274 266.759 312.592 266.362 313.001 266.082C313.41 265.803 313.89 265.653 314.382 265.653C314.708 265.653 315.032 265.719 315.333 265.847C315.635 265.974 315.909 266.162 316.14 266.398C316.371 266.634 316.554 266.914 316.679 267.223C316.804 267.532 316.868 267.862 316.868 268.196Z" fill="#F9FBFC"/>
<path d="M314.382 270.451C315.601 270.451 316.588 269.44 316.588 268.194C316.588 266.947 315.601 265.937 314.382 265.937C313.164 265.937 312.176 266.947 312.176 268.194C312.176 269.44 313.164 270.451 314.382 270.451Z" fill="#DCE8EF"/>
<path d="M314.434 269.232C315.286 269.232 315.977 268.525 315.977 267.653C315.977 266.781 315.286 266.074 314.434 266.074C313.582 266.074 312.891 266.781 312.891 267.653C312.891 268.525 313.582 269.232 314.434 269.232Z" fill="#F9FBFC"/>
<g style="mix-blend-mode:multiply" opacity="0.5">
<path d="M427.433 283.249V229.502H353.841V283.249H351.77V288.166H429.753V283.249H427.433Z" fill="#FFC331"/>
</g>
<path d="M428.705 228.202H355.113V284.662H428.705V228.202Z" fill="#3458B2"/>
<path d="M426.631 230.152H357.186V283.07H426.631V230.152Z" fill="#7FC2DD"/>
<path d="M425.995 230.802H357.186V283.07H425.995V230.802Z" fill="#82E3F9"/>
<path d="M425.995 230.802H357.186V283.07H425.995V230.802Z" fill="black"/>
<path d="M431.027 281.949H353.043V286.866H431.027V281.949Z" fill="#3458B2"/>
<path d="M337.469 234.317H310.6V263.92H337.469V234.317Z" fill="#82E3F9"/>
<path d="M337.469 234.317H310.6V263.92H337.469V234.317Z" fill="black"/>
<path d="M324.964 233.994H323.104V264.241H324.964V233.994Z" fill="#81A4FF"/>
<path d="M338.818 248.166H309.25V250.069H338.818V248.166Z" fill="#81A4FF"/>
<path d="M337.469 272.538H310.6V300.919H337.469V272.538Z" stroke="#6C94EF" stroke-width="0.927365" stroke-miterlimit="10"/>
<path d="M258.666 231.036C264.21 231.036 268.704 226.439 268.704 220.768C268.704 215.097 264.21 210.5 258.666 210.5C253.123 210.5 248.629 215.097 248.629 220.768C248.629 226.439 253.123 231.036 258.666 231.036Z" fill="#FFD776"/>
<path d="M258.666 229.093C263.161 229.093 266.805 225.366 266.805 220.768C266.805 216.17 263.161 212.443 258.666 212.443C254.171 212.443 250.527 216.17 250.527 220.768C250.527 225.366 254.171 229.093 258.666 229.093Z" fill="#FFC331"/>
<path d="M261.773 222.654C261.78 222.954 261.72 223.251 261.599 223.525C261.478 223.798 261.298 224.04 261.073 224.232C260.511 224.686 259.83 224.959 259.116 225.015V226.644H258.231V225.078C257.732 225.078 257.234 225.036 256.741 224.952C256.335 224.892 255.938 224.778 255.561 224.612V223.516C255.983 223.703 256.424 223.846 256.875 223.941C257.321 224.045 257.776 224.1 258.234 224.106V221.017C257.502 220.829 256.825 220.465 256.258 219.957C256.068 219.748 255.92 219.503 255.823 219.235C255.725 218.968 255.681 218.683 255.692 218.398C255.686 218.108 255.746 217.821 255.867 217.559C255.988 217.297 256.166 217.067 256.389 216.888C256.92 216.468 257.562 216.219 258.232 216.172V214.894H259.117V216.157C259.953 216.18 260.779 216.356 261.554 216.677L261.197 217.597C260.532 217.325 259.831 217.159 259.117 217.105V220.152C259.678 220.318 260.219 220.548 260.73 220.837C261.05 221.023 261.321 221.285 261.519 221.602C261.696 221.922 261.784 222.286 261.773 222.654V222.654ZM256.851 218.384C256.844 218.541 256.868 218.697 256.921 218.845C256.974 218.992 257.055 219.127 257.16 219.241C257.471 219.519 257.836 219.727 258.23 219.852V217.136C257.853 217.179 257.495 217.332 257.201 217.578C257.089 217.679 257 217.803 256.94 217.942C256.879 218.081 256.849 218.232 256.851 218.384V218.384ZM260.606 222.741C260.612 222.591 260.588 222.441 260.535 222.3C260.483 222.16 260.403 222.031 260.3 221.924C259.952 221.635 259.549 221.424 259.116 221.302V224.033C260.11 223.895 260.606 223.466 260.606 222.744V222.741Z" fill="white"/>
<path d="M497.365 303.087H225.334V320.774H497.365V303.087Z" fill="white"/>
<path d="M465.521 302.765H274.484V308.452H465.521V302.765Z" fill="#81A4FF"/>
<path d="M377.715 250.71C377.715 250.71 388.509 234.136 390.788 234.136C393.336 234.136 405.125 246.702 405.125 246.702" stroke="white" stroke-width="0.463682" stroke-linejoin="round"/>
<path d="M405.885 245.772L377.502 250.347C376.761 250.466 376.255 251.178 376.372 251.936L378.02 262.638C378.137 263.396 378.833 263.914 379.574 263.795L407.957 259.22C408.698 259.1 409.204 258.389 409.088 257.63L407.439 246.928C407.322 246.17 406.627 245.652 405.885 245.772Z" fill="#81A4FF"/>
<path d="M391.874 235.252C391.874 235.466 391.812 235.676 391.695 235.854C391.579 236.032 391.413 236.171 391.219 236.253C391.026 236.335 390.813 236.357 390.607 236.315C390.401 236.273 390.213 236.17 390.064 236.018C389.916 235.867 389.815 235.674 389.774 235.463C389.733 235.253 389.754 235.035 389.835 234.837C389.915 234.639 390.051 234.469 390.225 234.35C390.399 234.231 390.604 234.167 390.814 234.167C391.095 234.167 391.365 234.282 391.563 234.485C391.762 234.688 391.874 234.964 391.874 235.252Z" fill="#81A4FF"/>
<path d="M391.821 235.251C391.821 235.454 391.763 235.652 391.653 235.821C391.542 235.989 391.386 236.121 391.203 236.199C391.019 236.276 390.818 236.296 390.623 236.257C390.429 236.217 390.25 236.12 390.11 235.976C389.97 235.833 389.874 235.65 389.836 235.451C389.797 235.252 389.817 235.046 389.893 234.859C389.969 234.671 390.097 234.511 390.262 234.398C390.427 234.286 390.621 234.226 390.819 234.226C390.951 234.226 391.081 234.252 391.203 234.304C391.324 234.355 391.435 234.431 391.528 234.526C391.621 234.621 391.695 234.734 391.745 234.859C391.795 234.983 391.821 235.116 391.821 235.251V235.251Z" fill="#3458B2"/>
<path d="M391.506 234.932C391.506 235.072 391.465 235.209 391.389 235.325C391.313 235.442 391.205 235.532 391.079 235.586C390.953 235.639 390.814 235.653 390.68 235.626C390.545 235.599 390.422 235.531 390.326 235.432C390.229 235.334 390.163 235.208 390.136 235.07C390.11 234.933 390.123 234.791 390.176 234.662C390.228 234.532 390.317 234.422 390.43 234.344C390.544 234.267 390.678 234.225 390.814 234.225C390.998 234.225 391.174 234.3 391.303 234.432C391.433 234.565 391.506 234.745 391.506 234.932Z" fill="#81A4FF"/>
<path d="M430.393 162.187C432.466 159.875 432.314 156.282 430.053 154.162C427.793 152.041 424.281 152.197 422.208 154.509C420.135 156.821 420.287 160.414 422.547 162.534C424.808 164.654 428.32 164.499 430.393 162.187Z" fill="#F2EFE9"/>
<path d="M306.59 163.77C309.426 162.577 310.778 159.257 309.611 156.356C308.444 153.455 305.199 152.071 302.363 153.265C299.527 154.459 298.175 157.779 299.342 160.68C300.509 163.581 303.754 164.964 306.59 163.77Z" fill="#F2EFE9"/>
<path d="M309.364 137.663C309.364 138.166 309.218 138.658 308.945 139.076C308.672 139.494 308.284 139.82 307.829 140.012C307.375 140.205 306.875 140.255 306.393 140.157C305.911 140.058 305.468 139.816 305.12 139.461C304.773 139.105 304.536 138.652 304.44 138.159C304.344 137.665 304.394 137.154 304.582 136.689C304.77 136.225 305.089 135.828 305.497 135.548C305.906 135.269 306.387 135.12 306.878 135.12C307.205 135.12 307.528 135.186 307.83 135.313C308.132 135.441 308.406 135.629 308.636 135.865C308.867 136.101 309.05 136.381 309.175 136.69C309.3 136.999 309.364 137.329 309.364 137.663V137.663Z" fill="#F2EFE9"/>
<path d="M239.991 193.847C240.671 193.847 241.223 193.282 241.223 192.586C241.223 191.889 240.671 191.325 239.991 191.325C239.31 191.325 238.758 191.889 238.758 192.586C238.758 193.282 239.31 193.847 239.991 193.847Z" fill="#F2EFE9"/>
<path d="M378.461 132.153C378.461 132.402 378.389 132.647 378.253 132.854C378.118 133.062 377.925 133.224 377.699 133.319C377.474 133.415 377.225 133.44 376.986 133.391C376.746 133.343 376.526 133.222 376.354 133.046C376.181 132.869 376.064 132.644 376.016 132.399C375.968 132.154 375.993 131.9 376.086 131.669C376.18 131.439 376.338 131.241 376.541 131.102C376.744 130.964 376.983 130.89 377.227 130.89C377.554 130.89 377.868 131.023 378.1 131.26C378.331 131.496 378.461 131.818 378.461 132.153Z" fill="#F2EFE9"/>
<path d="M349.495 105.887C349.495 106.129 349.425 106.366 349.293 106.568C349.161 106.769 348.974 106.926 348.755 107.019C348.537 107.111 348.296 107.136 348.064 107.088C347.831 107.041 347.618 106.924 347.45 106.753C347.283 106.582 347.169 106.364 347.123 106.126C347.076 105.888 347.1 105.642 347.191 105.418C347.281 105.194 347.435 105.003 347.632 104.868C347.829 104.734 348.06 104.662 348.297 104.662C348.615 104.662 348.919 104.791 349.144 105.021C349.368 105.251 349.495 105.562 349.495 105.887Z" fill="#F2EFE9"/>
<path d="M490.268 211.258C490.268 211.508 490.196 211.752 490.06 211.96C489.924 212.167 489.732 212.329 489.506 212.425C489.28 212.52 489.032 212.545 488.793 212.497C488.553 212.448 488.333 212.328 488.16 212.151C487.988 211.974 487.87 211.749 487.823 211.504C487.775 211.259 487.799 211.005 487.893 210.775C487.986 210.544 488.145 210.347 488.348 210.208C488.551 210.069 488.789 209.995 489.033 209.995C489.361 209.995 489.675 210.128 489.906 210.365C490.138 210.602 490.268 210.923 490.268 211.258Z" fill="#F2EFE9"/>
<path d="M482.313 285.86C482.313 286.11 482.241 286.354 482.105 286.562C481.969 286.769 481.776 286.931 481.551 287.027C481.325 287.122 481.077 287.147 480.838 287.099C480.598 287.05 480.378 286.93 480.205 286.753C480.033 286.576 479.915 286.351 479.867 286.106C479.82 285.861 479.844 285.607 479.938 285.377C480.031 285.146 480.189 284.949 480.392 284.81C480.595 284.671 480.834 284.597 481.078 284.597C481.406 284.597 481.72 284.73 481.951 284.967C482.183 285.204 482.313 285.525 482.313 285.86Z" fill="#F2EFE9"/>
<path d="M436.235 141.552C436.235 141.801 436.162 142.046 436.027 142.253C435.891 142.461 435.698 142.623 435.473 142.718C435.247 142.814 434.999 142.839 434.759 142.79C434.52 142.742 434.3 142.621 434.127 142.445C433.955 142.268 433.837 142.043 433.789 141.798C433.742 141.553 433.766 141.299 433.86 141.068C433.953 140.838 434.111 140.64 434.314 140.502C434.517 140.363 434.756 140.289 435 140.289C435.328 140.289 435.642 140.422 435.873 140.659C436.105 140.895 436.235 141.217 436.235 141.552Z" fill="#F2EFE9"/>
<path d="M244.208 242.942C244.208 243.192 244.135 243.436 243.999 243.644C243.864 243.852 243.671 244.014 243.445 244.109C243.22 244.205 242.972 244.23 242.732 244.181C242.493 244.132 242.273 244.012 242.1 243.835C241.927 243.659 241.81 243.434 241.762 243.189C241.714 242.944 241.739 242.69 241.832 242.459C241.926 242.228 242.084 242.031 242.287 241.892C242.49 241.753 242.729 241.679 242.973 241.679C243.3 241.679 243.614 241.813 243.846 242.049C244.077 242.286 244.208 242.607 244.208 242.942Z" fill="#F2EFE9"/>
<path d="M269.586 175.643C270.959 175.643 272.073 174.504 272.073 173.099C272.073 171.694 270.959 170.555 269.586 170.555C268.213 170.555 267.1 171.694 267.1 173.099C267.1 174.504 268.213 175.643 269.586 175.643Z" fill="#F2EFE9"/>
<path d="M233.453 278.729C234.827 278.729 235.94 277.59 235.94 276.185C235.94 274.78 234.827 273.642 233.453 273.642C232.08 273.642 230.967 274.78 230.967 276.185C230.967 277.59 232.08 278.729 233.453 278.729Z" fill="#F2EFE9"/>
<path d="M486.632 238.291C486.632 238.744 486.501 239.186 486.255 239.563C486.009 239.939 485.659 240.232 485.25 240.406C484.841 240.579 484.392 240.624 483.957 240.536C483.523 240.448 483.125 240.23 482.812 239.909C482.499 239.589 482.286 239.181 482.199 238.737C482.113 238.293 482.157 237.833 482.327 237.415C482.496 236.997 482.783 236.639 483.151 236.387C483.519 236.136 483.951 236.002 484.394 236.002C484.987 236.002 485.557 236.243 485.976 236.672C486.396 237.101 486.632 237.684 486.632 238.291V238.291Z" fill="#F2EFE9"/>
<path d="M468.134 154.111C468.134 165.935 456.476 180.371 456.476 180.371C456.476 180.371 444.818 165.935 444.818 154.111C444.818 150.949 446.047 147.915 448.233 145.679C450.419 143.442 453.384 142.186 456.476 142.186C459.568 142.186 462.533 143.442 464.72 145.679C466.906 147.915 468.134 150.949 468.134 154.111Z" fill="#81A4FF"/>
<path d="M462.616 154.631C462.896 151.161 460.374 148.116 456.982 147.83C453.59 147.543 450.614 150.123 450.334 153.593C450.053 157.062 452.576 160.107 455.967 160.394C459.359 160.68 462.335 158.1 462.616 154.631Z" fill="#F9FBFC"/>
<path d="M386.879 164.028H384.205V168.69H386.879V164.028Z" fill="#FFC331"/>
<path d="M385.953 164.975H385.131V167.743H385.953V164.975Z" stroke="#FFC331" stroke-width="2.78209" stroke-miterlimit="10"/>
<path d="M345.743 164.028H343.068V168.691H345.743V164.028Z" fill="#FFC331"/>
<path d="M344.816 164.975H343.994V167.743H344.816V164.975Z" stroke="#FFC331" stroke-width="2.78209" stroke-miterlimit="10"/>
<path d="M392.662 139.447H337.285C335.879 139.447 334.738 140.614 334.738 142.053V161.431C334.738 162.87 335.879 164.037 337.285 164.037H392.662C394.068 164.037 395.209 162.87 395.209 161.431V142.053C395.209 140.614 394.068 139.447 392.662 139.447Z" fill="#FFC331"/>
<g style="mix-blend-mode:multiply">
<g style="mix-blend-mode:multiply">
<path d="M392.662 141.342C392.846 141.342 393.023 141.417 393.153 141.55C393.284 141.684 393.357 141.864 393.357 142.053V161.431C393.357 161.62 393.284 161.8 393.153 161.934C393.023 162.067 392.846 162.142 392.662 162.142H337.286C337.102 162.142 336.925 162.067 336.794 161.934C336.664 161.801 336.591 161.62 336.59 161.431V142.053C336.591 141.864 336.664 141.683 336.794 141.55C336.925 141.417 337.102 141.342 337.286 141.342H392.662ZM392.662 139.447H337.286C336.61 139.447 335.962 139.722 335.485 140.21C335.007 140.699 334.738 141.362 334.738 142.053V161.431C334.738 162.122 335.007 162.785 335.485 163.274C335.962 163.762 336.61 164.037 337.286 164.037H392.662C393.338 164.037 393.986 163.762 394.463 163.274C394.941 162.785 395.209 162.122 395.209 161.431V142.053C395.209 141.362 394.941 140.699 394.463 140.21C393.986 139.722 393.338 139.447 392.662 139.447Z" fill="#FFC331"/>
</g>
</g>
<path d="M392.662 139.447H337.285C335.879 139.447 334.738 140.614 334.738 142.053V161.431C334.738 162.87 335.879 164.037 337.285 164.037H392.662C394.068 164.037 395.209 162.87 395.209 161.431V142.053C395.209 140.614 394.068 139.447 392.662 139.447Z" stroke="#81A4FF" stroke-width="2.78209" stroke-miterlimit="10"/>
<path d="M420.82 155.558C420.328 155.558 419.847 155.708 419.438 155.987C419.029 156.267 418.711 156.664 418.522 157.129C418.334 157.593 418.285 158.105 418.381 158.598C418.477 159.092 418.714 159.545 419.061 159.9C419.409 160.256 419.852 160.498 420.334 160.597C420.817 160.695 421.317 160.644 421.771 160.452C422.225 160.259 422.614 159.933 422.887 159.515C423.16 159.097 423.306 158.605 423.306 158.102C423.306 157.427 423.044 156.78 422.578 156.303C422.111 155.826 421.479 155.558 420.82 155.558ZM415.01 151.896L417.198 154.232C418.172 153.275 419.47 152.741 420.82 152.741C422.17 152.741 423.468 153.275 424.441 154.232L426.63 151.896C425.068 150.361 422.986 149.503 420.82 149.503C418.654 149.503 416.572 150.361 415.01 151.896ZM420.82 135.887C415.224 135.882 409.843 138.094 405.807 142.059L407.996 144.399C411.446 141.016 416.041 139.128 420.82 139.128C425.599 139.128 430.193 141.016 433.644 144.399L435.833 142.059C431.797 138.093 426.416 135.88 420.82 135.884V135.887ZM410.469 147.042L412.657 149.378C414.851 147.221 417.777 146.017 420.82 146.017C423.863 146.017 426.788 147.221 428.983 149.378L431.171 147.042C428.389 144.306 424.679 142.778 420.82 142.778C416.961 142.778 413.251 144.306 410.469 147.042V147.042Z" fill="#FFC331"/>
<path d="M264.392 171.132L263.803 171.534C263.671 171.624 263.523 171.687 263.367 171.718C263.211 171.75 263.05 171.749 262.894 171.717C262.739 171.685 262.591 171.621 262.459 171.53C262.327 171.439 262.214 171.322 262.127 171.187L258.152 165.061L256.867 163.075L259.018 161.623L259.48 161.311L259.761 161.742L261.09 163.8L264.732 169.42C264.82 169.556 264.881 169.707 264.911 169.866C264.941 170.026 264.941 170.19 264.909 170.349C264.878 170.508 264.816 170.659 264.727 170.793C264.638 170.928 264.524 171.043 264.392 171.132Z" fill="#81A4FF"/>
<path d="M284.136 149.569C284.457 150.363 284.459 151.253 284.141 152.048C283.823 152.842 283.211 153.476 282.439 153.812L282.363 153.843C282.25 153.891 282.132 153.93 282.013 153.958C282.002 153.963 281.991 153.965 281.979 153.965C281.882 153.997 281.782 154.018 281.681 154.028C281.626 154.036 281.57 154.045 281.521 154.05C281.419 154.062 281.316 154.068 281.213 154.065C281.098 154.069 280.983 154.064 280.87 154.05C280.863 154.046 280.854 154.044 280.846 154.045C280.724 154.03 280.602 154.008 280.483 153.978C280.467 153.978 280.449 153.969 280.434 153.968C280.322 153.941 280.211 153.904 280.105 153.858C279.862 153.774 279.633 153.654 279.426 153.501C278.917 153.154 278.521 152.661 278.286 152.084C278.064 151.546 277.989 150.957 278.067 150.379C278.146 149.8 278.376 149.254 278.733 148.798C279.09 148.343 279.56 147.994 280.095 147.789C280.629 147.584 281.208 147.53 281.77 147.633C281.818 147.643 281.857 147.65 281.905 147.66V147.666C282.132 147.715 282.352 147.792 282.56 147.897C282.635 147.927 282.707 147.965 282.774 148.01C282.828 148.037 282.879 148.068 282.928 148.104C282.952 148.113 282.973 148.127 282.99 148.146C283.148 148.252 283.295 148.374 283.428 148.512C283.476 148.559 283.515 148.603 283.557 148.653C283.599 148.69 283.636 148.732 283.666 148.779C283.711 148.828 283.749 148.883 283.781 148.941C283.83 148.989 283.868 149.048 283.893 149.112C283.921 149.144 283.943 149.181 283.958 149.22C284.027 149.331 284.086 149.448 284.136 149.569V149.569Z" fill="#112B46"/>
<path d="M284.136 149.57C284.457 150.363 284.459 151.254 284.141 152.048C283.823 152.842 283.211 153.476 282.439 153.812L282.363 153.843C282.25 153.892 282.133 153.93 282.013 153.958C282.002 153.963 281.991 153.966 281.979 153.965C281.882 153.997 281.783 154.018 281.681 154.028C281.626 154.037 281.57 154.045 281.522 154.05C281.419 154.063 281.316 154.068 281.213 154.066C281.098 154.07 280.984 154.064 280.87 154.05C280.863 154.046 280.854 154.044 280.846 154.045C280.724 154.031 280.602 154.008 280.483 153.978C280.467 153.978 280.449 153.97 280.434 153.968C280.322 153.941 280.212 153.904 280.105 153.858C279.865 153.768 279.637 153.648 279.426 153.501C280.026 153.618 280.647 153.548 281.209 153.301C281.502 153.175 281.775 153.006 282.021 152.799C282.645 152.256 283.044 151.49 283.136 150.658C283.194 150.113 283.115 149.563 282.906 149.059C282.701 148.554 282.372 148.112 281.951 147.775V147.769C281.894 147.72 281.834 147.675 281.772 147.633C281.819 147.642 281.865 147.653 281.91 147.666C282.137 147.715 282.357 147.792 282.565 147.897C282.64 147.927 282.712 147.965 282.779 148.01C282.833 148.037 282.884 148.069 282.933 148.104C282.957 148.113 282.978 148.127 282.995 148.146C283.153 148.252 283.3 148.375 283.433 148.512C283.481 148.559 283.52 148.603 283.562 148.653C283.604 148.69 283.641 148.733 283.671 148.78C283.716 148.829 283.754 148.883 283.786 148.941C283.835 148.99 283.873 149.048 283.898 149.112C283.926 149.144 283.948 149.181 283.963 149.22C284.03 149.332 284.088 149.448 284.136 149.57V149.57Z" fill="#112B46"/>
<path d="M262.177 163.33L261.087 163.797L258.15 165.06L257.656 165.273L255.332 159.631L254.635 157.926L259.158 155.984L261.543 161.78L262.177 163.33Z" fill="#81A4FF"/>
<path d="M257.657 165.272L257.281 165.435C256.94 165.581 256.556 165.582 256.214 165.439C255.871 165.296 255.598 165.02 255.454 164.671L253.519 159.955C253.376 159.607 253.374 159.215 253.513 158.865C253.651 158.515 253.92 158.236 254.26 158.088L254.635 157.925L255.333 159.63L257.657 165.272Z" fill="#FFC331"/>
<path d="M285.061 160.185H285.055L262.179 163.327L261.543 161.777L259.16 155.984L277.366 141.46L279.986 147.834L282.027 152.798L282.442 153.809L285.061 160.185Z" fill="#FFC331"/>
<g style="mix-blend-mode:multiply" opacity="0.5">
<path d="M285.062 160.185H285.056L262.179 163.327L261.543 161.776C264.884 161.606 268.846 160.121 272.806 157.999C280.536 153.865 277.365 141.459 277.365 141.459L279.985 147.832L282.022 152.797L282.438 153.807L285.062 160.185Z" fill="#FFC331"/>
</g>
<path d="M287.075 160.242C287.148 160.419 287.149 160.619 287.078 160.797C287.007 160.975 286.87 161.118 286.697 161.193L286.31 161.361C286.223 161.398 286.13 161.417 286.037 161.418C285.943 161.418 285.85 161.399 285.763 161.362C285.677 161.326 285.598 161.272 285.532 161.205C285.465 161.137 285.413 161.056 285.377 160.968L285.053 160.187L282.439 153.81L282.023 152.799L279.986 147.835L277.369 141.46L277.045 140.68C277.008 140.592 276.989 140.498 276.988 140.402C276.988 140.307 277.005 140.212 277.04 140.124C277.076 140.035 277.128 139.955 277.193 139.887C277.259 139.819 277.337 139.765 277.423 139.728L277.811 139.56C277.985 139.487 278.179 139.486 278.353 139.559C278.527 139.631 278.666 139.771 278.741 139.947L279.42 141.6L281.909 147.662L281.955 147.778L283.141 150.66L283.909 152.523L287.075 160.242Z" fill="#81A4FF"/>
<path d="M295.354 155.513L289.495 155.708L296.138 156.695L307.974 158.46C308.202 158.494 308.435 158.479 308.657 158.417C308.879 158.354 309.086 158.244 309.264 158.095C309.442 157.946 309.589 157.761 309.693 157.55C309.798 157.34 309.858 157.11 309.871 156.875V156.875C309.884 156.64 309.849 156.404 309.768 156.184C309.687 155.963 309.562 155.762 309.401 155.594C309.24 155.425 309.046 155.293 308.833 155.205C308.619 155.117 308.39 155.076 308.16 155.084L295.354 155.513ZM307.942 139.568C307.853 139.351 307.721 139.155 307.553 138.993C307.386 138.83 307.188 138.705 306.971 138.625C306.755 138.545 306.524 138.512 306.294 138.528C306.064 138.544 305.84 138.608 305.635 138.717L289.183 147.485L287.719 148.265L289.369 147.716L306.923 141.851C307.142 141.777 307.344 141.659 307.516 141.501C307.688 141.344 307.826 141.153 307.922 140.938C308.018 140.724 308.069 140.491 308.073 140.255C308.076 140.02 308.032 139.786 307.942 139.568V139.568ZM294.776 126.324L283.762 141.756L297.263 128.552C297.429 128.389 297.561 128.193 297.649 127.975C297.737 127.757 297.78 127.523 297.775 127.288C297.77 127.052 297.717 126.821 297.62 126.607C297.523 126.394 297.383 126.203 297.21 126.048V126.048C297.037 125.893 296.834 125.776 296.614 125.705C296.394 125.634 296.162 125.611 295.933 125.637C295.704 125.663 295.483 125.738 295.284 125.856C295.085 125.974 294.911 126.134 294.776 126.324V126.324Z" fill="#FFC331"/>
</g>
</g>
<defs>
<filter id="filter0_d" x="221.334" y="104.662" width="280.031" height="224.112" filterUnits="userSpaceOnUse" color-interpolation-filters="sRGB">
<feFlood flood-opacity="0" result="BackgroundImageFix"/>
<feColorMatrix in="SourceAlpha" type="matrix" values="0 0 0 0 0 0 0 0 0 0 0 0 0 0 0 0 0 0 127 0"/>
<feOffset dy="4"/>
<feGaussianBlur stdDeviation="2"/>
<feColorMatrix type="matrix" values="0 0 0 0 0 0 0 0 0 0 0 0 0 0 0 0 0 0 0.25 0"/>
<feBlend mode="normal" in2="BackgroundImageFix" result="effect1_dropShadow"/>
<feBlend mode="normal" in="SourceGraphic" in2="effect1_dropShadow" result="shape"/>
</filter>
</defs>
</svg>
